# xmcd
#
# Track frame offsets:
# 150
# 20228
# 39337
# 56998
# 74025
# 89425
# 98875
# 110732
# 128127
# 150139
# 166030
# 203397
# 221764
# 236315
# 252152
# 268734
# 281548
# 299238
# 315568
#
# Disc length: 4587 seconds
#
#
# Revision: 0
# Processed by: cddbd v1.4PL0 Copyright (c) Steve Scherf et al.
# Submitted via: FreeRIP 2.52 
#
DISCID=1a11e913
DTITLE=Various Artist - 2002 Blues and Roots Festival
DYEAR=2002
DGENRE=Blues
TTITLE0=I Wouldn't Lay My Guitar Down
TTITLE1=Go Go Gaugin
TTITLE2=Waiting On The Cards To Fall
TTITLE3=Big Yellow Taxi
TTITLE4=Runaway Train
TTITLE5=Miller, Jack and The Dog
TTITLE6=Devil's Slide
TTITLE7=Everything Is Still
TTITLE8=Hoedown
TTITLE9=Burnin' Down
TTITLE10=Better Man
TTITLE11=I Been HooDood
TTITLE12=Scene Of The Crime
TTITLE13=How Many Times
TTITLE14=Monsoon
TTITLE15=Parallel World
TTITLE16=It's Love Baby(24 Hours Of The Day)
TTITLE17=Ride On
TTITLE18=Big Foot Woman
EXTD=
EXTT0=Eddy 'The Chief' Clearwater
EXTT1=Chris Wilson
EXTT2=Guy Davis
EXTT3=Keb Mo
EXTT4=Kasey Chambers
EXTT5=Wayne Hancock
EXTT6=Bob Brozman
EXTT7=Jeff Lang
EXTT8=Bela Fleck and The Flecktones
EXTT9=Patty Larkin
EXTT10=John Butler Trio
EXTT11=Wild Magnolias
EXTT12=Marcia Bell
EXTT13=The Proclaimers
EXTT14=Luka Bloom
EXTT15=Glen Tilbrook
EXTT16=Ross Wilson
EXTT17=The Revelators
EXTT18=Big Jack Johnson and The Oilers
PLAYORDER=
